<svg width="121" height="20" viewBox="0 0 121 20" fill="none" xmlns="http://www.w3.org/2000/svg">
<g clip-path="url(#clip0_4994_25652)">
<path fill-rule="evenodd" clip-rule="evenodd" d="M32.0957 4.61426C34.8893 4.61436 37.0488 6.89864 37.0488 9.84277C37.0488 12.7868 34.9087 15.0086 32.1201 15.0088C30.9679 15.0521 29.8537 14.5843 29.0742 13.7363V19.2969H25.6123L25.6074 19.3018V4.9375H29.0693V6.01172C29.8246 5.04325 30.7789 4.6143 32.0957 4.61426ZM31.1855 7.58789C29.9608 7.59763 28.9679 8.58486 28.958 9.80371L28.9639 10.0312C29.0738 11.154 30.0231 12.0358 31.1807 12.0449C32.4152 12.0496 33.422 11.0568 33.4316 9.82812C33.4413 8.59957 32.4395 7.59776 31.2051 7.58789H31.1855Z" fill="white"/>
<path fill-rule="evenodd" clip-rule="evenodd" d="M100.828 7.52051C101.595 7.52053 102.298 7.68898 102.916 8.02051C103.534 8.35518 104.028 8.82326 104.383 9.41113C104.737 9.99912 104.916 10.6724 104.916 11.4111C104.916 12.1497 104.737 12.8222 104.383 13.4102C104.028 13.9982 103.537 14.466 102.916 14.8008C102.298 15.1325 101.595 15.3017 100.828 15.3018C100.062 15.3017 99.3583 15.1324 98.7402 14.8008C98.1223 14.466 97.6279 13.9953 97.2734 13.4043C96.9191 12.8134 96.7403 12.1407 96.7402 11.4111C96.7403 10.6815 96.922 10.011 97.2734 9.41699C97.6249 8.8231 98.1192 8.35218 98.7402 8.02051C99.3552 7.68893 100.062 7.52057 100.828 7.52051ZM100.828 8.96191C100.362 8.96197 99.9341 9.06744 99.5615 9.27539C99.1919 9.48345 98.8947 9.77653 98.6826 10.1504C98.4706 10.5242 98.3614 10.9498 98.3613 11.4141C98.3614 11.8782 98.4707 12.3039 98.6826 12.6777C98.8946 13.0484 99.1891 13.3437 99.5615 13.5518C99.9341 13.7598 100.362 13.8662 100.828 13.8662C101.295 13.8662 101.722 13.7598 102.095 13.5518C102.464 13.3437 102.762 13.0516 102.974 12.6777C103.186 12.3039 103.295 11.8784 103.295 11.4141C103.295 10.9499 103.186 10.5242 102.974 10.1504C102.762 9.77966 102.464 9.4834 102.095 9.27539C101.722 9.0675 101.295 8.96194 100.828 8.96191Z" fill="white"/>
<path d="M91.4648 7.51758C92.0949 7.51758 92.6773 7.62309 93.1953 7.83105C93.7133 8.03908 94.1592 8.35002 94.5137 8.75391L94.5889 8.8418L93.5557 9.84277L93.4707 9.75879C92.9344 9.22525 92.2797 8.95605 91.5254 8.95605C91.0287 8.95612 90.5829 9.06163 90.1982 9.2666V9.25781C89.8166 9.46285 89.513 9.75525 89.2979 10.123C89.0828 10.4939 88.9737 10.9381 88.9736 11.4023C88.9737 11.8663 89.0831 12.2885 89.2979 12.6592C89.5129 13.03 89.8166 13.326 90.1982 13.5371C90.583 13.7482 91.026 13.8574 91.5137 13.8574C92.0377 13.8574 92.5074 13.7483 92.9072 13.5312V12.3125H91.4229V10.9229H94.4404V11.2002H94.4434V14.3037L94.3984 14.3398C94.0106 14.6474 93.5523 14.8879 93.0342 15.0508C92.5192 15.2136 91.9827 15.2988 91.4404 15.2988C90.674 15.2987 89.9706 15.1295 89.3525 14.7979C88.7347 14.4631 88.2402 13.9951 87.8857 13.4072C87.5316 12.8194 87.3526 12.1437 87.3525 11.4082C87.3526 10.6725 87.5313 9.99619 87.8857 9.4082C88.2402 8.8204 88.7345 8.35325 89.3584 8.01855C89.9795 7.68687 90.6892 7.51764 91.4648 7.51758Z" fill="white"/>
<path d="M108.998 13.8027H112.85V15.1992H107.386V7.62305H108.998V13.8027Z" fill="white"/>
<path d="M120.577 9.00684H116.564V10.998H120.122V12.3906H116.564V15.1992H114.952V7.62305H120.577V9.00684Z" fill="white"/>
<path d="M42.1172 4.60059C43.2015 4.57651 44.2762 4.79306 45.2734 5.22656L44.1133 7.45605C43.5332 7.15369 42.8905 6.99499 42.2334 6.98535C41.6041 6.98541 41.1729 7.28453 41.1729 7.6748C41.173 8.10341 41.4305 8.2333 42.7324 8.5127C44.6737 8.89823 45.584 9.82381 45.584 11.3994C45.5839 13.616 43.7435 15.0566 40.9111 15.0566C39.5266 15.0517 38.1706 14.6612 36.999 13.9385L38.2529 11.5049C39.1629 12.1071 40.2236 12.4978 41.0176 12.498C41.6468 12.498 42.0973 12.1754 42.0977 11.7227C42.0977 11.2697 41.7975 11.101 40.626 10.8408C38.5492 10.412 37.7502 9.65509 37.75 8.12793C37.75 5.95477 39.4156 4.60065 42.1172 4.60059Z" fill="white"/>
<path fill-rule="evenodd" clip-rule="evenodd" d="M52.0723 4.57617C55.5341 4.57617 57.9795 6.74966 57.9795 9.80469C57.9794 12.9077 55.5345 15.0565 52.0293 15.0566C48.524 15.0566 46.1895 12.8595 46.1895 9.71777C46.204 8.25787 46.8485 6.87993 47.9619 5.93066C48.935 5.08749 50.494 4.57629 52.0723 4.57617ZM52.0723 7.54492C50.8477 7.55965 49.8604 8.54197 49.8457 9.76074C49.8409 10.9893 50.833 11.9969 52.0723 12.002C53.3069 12.0068 54.3194 11.0187 54.3242 9.78516C54.329 8.55642 53.3361 7.54974 52.0967 7.54492H52.0723Z" fill="white"/>
<path fill-rule="evenodd" clip-rule="evenodd" d="M77.0312 4.57617C80.4928 4.57635 82.9326 6.74979 82.9326 9.80469L82.9307 10.0928C82.7838 13.04 80.3831 15.0566 76.9873 15.0566C73.482 15.0566 71.1484 12.8595 71.1484 9.71777C71.163 8.25792 71.8066 6.87993 72.9199 5.93066C73.8931 5.08743 75.4529 4.57621 77.0312 4.57617ZM77.0361 7.54492C75.8114 7.55466 74.8233 8.54186 74.8086 9.76074C74.8038 10.9894 75.7967 11.9921 77.0361 11.9971C78.2706 12.0016 79.2774 11.0137 79.2822 9.78027C79.287 8.55157 78.2941 7.54974 77.0547 7.54492H77.0361Z" fill="white"/>
<path fill-rule="evenodd" clip-rule="evenodd" d="M17.8223 4.62012C18.9745 4.57675 20.0935 5.04456 20.873 5.89258V4.94727H24.3301V14.6914H20.8682V13.6162C20.108 14.5847 19.1587 15.0137 17.8418 15.0137C15.0531 15.0136 12.8887 12.7341 12.8887 9.78516C12.8889 6.83647 15.0289 4.62028 17.8223 4.62012ZM18.7275 7.58789C17.5078 7.59293 16.5206 8.57121 16.501 9.78516C16.4816 11.0137 17.4736 12.0263 18.708 12.0459C19.9425 12.0652 20.9599 11.0772 20.9795 9.84863C20.9989 8.61992 20.0061 7.60723 18.7715 7.58789H18.7275Z" fill="white"/>
<path fill-rule="evenodd" clip-rule="evenodd" d="M70.2627 14.6904H66.8008V13.6162C66.0455 14.5847 65.0962 15.0137 63.7744 15.0137C60.9808 15.0136 58.8213 12.7341 58.8213 9.78516C58.8213 6.83632 60.9614 4.62031 63.7549 4.62012C64.9072 4.57675 66.0213 5.04358 66.8008 5.8916V0.331055H70.2627V14.6904ZM64.6553 7.58789C63.4354 7.59299 62.4481 8.57108 62.4287 9.78516L62.4424 10.0127C62.5433 11.1363 63.4834 12.0262 64.6406 12.04C65.8753 12.0545 66.8927 11.0715 66.9072 9.84277C66.9216 8.61417 65.9337 7.60236 64.6992 7.58789H64.6553Z" fill="white"/>
<path d="M4.92285 14.7002H0.797852V14.0156H4.92285V14.7002Z" fill="white"/>
<path d="M7.68848 0.331055C11.455 0.331067 12.4861 3.07235 12.4863 4.76855C12.4863 6.14664 11.9783 7.25064 11.1553 7.95898C10.6567 8.39257 10.1819 8.62857 9.31543 8.82129L13.8613 14.7002H9.04883L5.61133 9.22656V6.83105H6.29883C8.01732 6.83105 8.70483 5.81024 8.70508 4.98633C8.70508 4.16234 8.3614 3.06836 6.29883 3.06836H5.61133V0.331055H7.68848Z" fill="white"/>
<path d="M4.92285 13.332H2.17285V12.6475H4.92285V13.332Z" fill="white"/>
<path d="M4.92285 11.9639H2.17285V11.2793H4.92285V11.9639Z" fill="white"/>
<path d="M4.92285 10.5947H2.17285V9.91016H4.92285V10.5947Z" fill="white"/>
<path d="M4.92285 9.22656H2.17285V8.54199H4.92285V9.22656Z" fill="white"/>
<path d="M4.92285 7.85742H0.797852V7.17383H4.92285V7.85742Z" fill="white"/>
<path d="M44.1172 7.45801L44.1074 7.46777L44.1133 7.45605L44.1172 7.45801Z" fill="white"/>
<path d="M4.92285 6.48926H2.17285V5.80566H4.92285V6.48926Z" fill="white"/>
<path d="M4.92285 5.12012H2.17285V4.43652H4.92285V5.12012Z" fill="white"/>
<path d="M4.92285 3.75195H2.17285V3.06836H4.92285V3.75195Z" fill="white"/>
<path fill-rule="evenodd" clip-rule="evenodd" d="M83.582 0.879883C83.7434 0.868206 83.9021 0.906634 84.04 0.991211C84.1457 1.07005 84.205 1.19576 84.2021 1.32715C84.2021 1.42065 84.172 1.51192 84.1162 1.58789C84.0634 1.66062 83.9872 1.71595 83.8994 1.74219L83.8789 1.74805L83.873 1.74512L84.3604 2.36719H84.0107L83.5674 1.77734V2.36719H83.2832V0.879883H83.582ZM83.5645 1.53809H83.6113C83.8168 1.53809 83.9199 1.46739 83.9199 1.32715C83.9198 1.19583 83.8196 1.13184 83.623 1.13184H83.5645V1.53809Z" fill="white"/>
<path fill-rule="evenodd" clip-rule="evenodd" d="M83.7354 0.331055C83.923 0.331108 84.1082 0.366524 84.2783 0.442383C84.507 0.541693 84.701 0.707838 84.833 0.915039C84.9709 1.12529 85.0439 1.36802 85.0439 1.61914L85.041 1.62207C85.0469 2.33486 84.472 2.9168 83.7559 2.92285C83.0396 2.92859 82.4551 2.35543 82.4492 1.64258V1.61914C82.4493 1.42943 82.4872 1.24254 82.5723 1.07324C82.6544 0.900903 82.7722 0.748685 82.9189 0.628906C83.1479 0.436206 83.4361 0.3311 83.7354 0.331055ZM83.7383 0.517578C83.4506 0.514711 83.1742 0.632452 82.9775 0.842773C82.7694 1.04717 82.6544 1.32724 82.6602 1.61621C82.6543 1.91121 82.7692 2.19492 82.9775 2.40234C83.3885 2.82597 84.0636 2.83766 84.4893 2.42871C84.498 2.41998 84.5069 2.41107 84.5156 2.40234C84.7241 2.1949 84.8389 1.9113 84.833 1.61621C84.8329 1.44115 84.7891 1.26598 84.71 1.1084C84.6366 0.953603 84.5217 0.819036 84.3838 0.716797C84.196 0.582537 83.9729 0.511818 83.7412 0.514648L83.7383 0.517578Z" fill="white"/>
<path d="M4.92285 2.38379H2.17285V1.69922H4.92285V2.38379Z" fill="white"/>
<path d="M4.92285 1.01562H0.797852V0.331055H4.92285V1.01562Z" fill="white"/>
</g>
<defs>
<clipPath id="clip0_4994_25652">
<rect width="120" height="19" fill="white" transform="translate(0.797852 0.331055)"/>
</clipPath>
</defs>
</svg>
